# xmcd CD database file
#
# Track frame offsets:
#	150
#	19220
#	38569
#	57159
#	74336
#	91162
#	102154
#	120063
#	138726
#	152942
#	165961
#	180166
#	194061
#	210825
#	222861
#	238442
#	253339
#
# Disc length: 3597 seconds
#
# Revision: 2
# Processed by: cddbd v1.4b41PL1 Copyright (c) Steve Scherf et al.
# Submitted via: Feurio! 1.50.2ß - http://www.feurio.com
#
DISCID=e70e0b11
DTITLE=Various Artist - Country Jewels 2
DYEAR=1900
DGENRE=
TTITLE0=Malo/Cook - Dance the night away
TTITLE1=Bowling/Wheeler - Coward of the road
TTITLE2=Tippe - Rattlesnake Shake
TTITLE3=Orbison/Melson - blue Bayou
TTITLE4=Mc Hugh/Kenner - Holdin' Heaven
TTITLE5=Fred/Livingstone - Adios Amigo
TTITLE6=Tate/Rutherford - Shut up and drive
TTITLE7=Gibb - Islands in the stream
TTITLE8=Stuart/Kennerley - Rocket Ship
TTITLE9=Braddock/Putman - D.I.V.O.R.C.E.
TTITLE10=Nesler - Honky Tonk Dancing Machine
TTITLE11=arton - I Will always love you
TTITLE12=Sheriff - Strut your stuff
TTITLE13=Williams - Your Cheatin' heart
TTITLE14=Goffin/King - Locomotion
TTITLE15=Danoff/Nivert/Denver - Take me home, Countray Road
TTITLE16=Reinz - Old Pop In An Oak
EXTD=
EXTT0=
EXTT1=
EXTT2=
EXTT3=
EXTT4=
EXTT5=
EXTT6=
EXTT7=
EXTT8=
EXTT9=
EXTT10=
EXTT11=
EXTT12=
EXTT13=
EXTT14=
EXTT15=
EXTT16=
PLAYORDER=
